<svg xmlns="http://www.w3.org/2000/svg" enable-background="new 0 0 48 48" viewBox="0 0 48 48" class="choose-doroob__icon replaced-svg"><g fill="#fff"><path d="m18 45.5h-15c-.3 0-.5-.2-.5-.5v-36c0-.3.2-.5.5-.5h15c3.6 0 6.5 2.9 6.5 6.5v24c0 3.6-2.9 6.5-6.5 6.5zm-14.5-1h14.5c3 0 5.5-2.5 5.5-5.5v-24c0-3-2.5-5.5-5.5-5.5h-14.5z"></path><path d="m45 45.5h-15c-3.6 0-6.5-2.9-6.5-6.5v-24c0-3.6 2.9-6.5 6.5-6.5h15c.3 0 .5.2.5.5v36c0 .3-.2.5-.5.5zm-15-36c-3 0-5.5 2.5-5.5 5.5v24c0 3 2.5 5.5 5.5 5.5h14.5v-35z"></path><path d="m11 19h-4c-.3 0-.5-.2-.5-.5s.2-.5.5-.5h4c.3 0 .5.2.5.5s-.2.5-.5.5z"></path><path d="m18 23h-11c-.3 0-.5-.2-.5-.5s.2-.5.5-.5h11c.3 0 .5.2.5.5s-.2.5-.5.5z"></path><path d="m18 27h-11c-.3 0-.5-.2-.5-.5s.2-.5.5-.5h11c.3 0 .5.2.5.5s-.2.5-.5.5z"></path><path d="m18 31h-11c-.3 0-.5-.2-.5-.5s.2-.5.5-.5h11c.3 0 .5.2.5.5s-.2.5-.5.5z"></path><path d="m18 35h-11c-.3 0-.5-.2-.5-.5s.2-.5.5-.5h11c.3 0 .5.2.5.5s-.2.5-.5.5z"></path><path d="m40 19h-4c-.3 0-.5-.2-.5-.5s.2-.5.5-.5h4c.3 0 .5.2.5.5s-.2.5-.5.5z"></path><path d="m40 23h-11c-.3 0-.5-.2-.5-.5s.2-.5.5-.5h11c.3 0 .5.2.5.5s-.2.5-.5.5z"></path><path d="m40 27h-11c-.3 0-.5-.2-.5-.5s.2-.5.5-.5h11c.3 0 .5.2.5.5s-.2.5-.5.5z"></path><path d="m40 31h-11c-.3 0-.5-.2-.5-.5s.2-.5.5-.5h11c.3 0 .5.2.5.5s-.2.5-.5.5z"></path><path d="m40 35h-11c-.3 0-.5-.2-.5-.5s.2-.5.5-.5h11c.3 0 .5.2.5.5s-.2.5-.5.5z"></path><path d="m24 12.5c-.3 0-.5-.2-.5-.5 0-3-2.5-5.5-5.5-5.5h-14c-.3 0-.5-.2-.5-.5s.2-.5.5-.5h14c3.6 0 6.5 2.9 6.5 6.5 0 .3-.2.5-.5.5z"></path><path d="m24 12.5c-.3 0-.5-.2-.5-.5 0-3.6 2.9-6.5 6.5-6.5h14c.3 0 .5.2.5.5s-.2.5-.5.5h-14c-3 0-5.5 2.5-5.5 5.5 0 .3-.2.5-.5.5z"></path><path d="m24 9.5c-.3 0-.5-.2-.5-.5 0-3-2.5-5.5-5.5-5.5h-13c-.3 0-.5-.2-.5-.5s.2-.5.5-.5h13c3.6 0 6.5 2.9 6.5 6.5 0 .3-.2.5-.5.5z"></path><path d="m24 9.5c-.3 0-.5-.2-.5-.5 0-3.6 2.9-6.5 6.5-6.5h13c.3 0 .5.2.5.5s-.2.5-.5.5h-13c-3 0-5.5 2.5-5.5 5.5 0 .3-.2.5-.5.5z"></path></g></svg>
